<svg width="46" height="40" viewBox="0 0 46 62" fill="none" xmlns="http://www.w3.org/2000/svg">
<path d="M4.80774 22.8371C4.80774 32.7786 12.8956 40.8664 22.837 40.8664C32.7785 40.8664 40.8663 32.7786 40.8663 22.8371C40.8663 12.8957 32.7785 4.80786 22.837 4.80786C12.8956 4.80786 4.80774 12.8957 4.80774 22.8371ZM22.837 7.21177C31.453 7.21177 38.4624 14.2211 38.4624 22.8371C38.4624 31.4532 31.453 38.4625 22.837 38.4625C14.221 38.4625 7.21164 31.4532 7.21164 22.8371C7.21164 14.2211 14.221 7.21177 22.837 7.21177Z" fill="#A7623A"/>
<path d="M11.7058 20.6944L16.3648 25.2848L15.2929 31.7364C15.2182 32.1857 15.4037 32.6383 15.7722 32.9059C16.1403 33.1735 16.6282 33.2097 17.0324 33.0003L22.837 29.986L28.6411 33.0003C29.0421 33.2083 29.5299 33.1759 29.9013 32.9059C30.2698 32.6383 30.4553 32.1857 30.3807 31.7364L29.3088 25.2848L33.9677 20.6944C34.2922 20.3751 34.4081 19.8999 34.2673 19.4666C34.1264 19.0337 33.7532 18.7177 33.3029 18.6496L26.8372 17.6763L23.9117 11.8257C23.7084 11.4187 23.292 11.1614 22.837 11.1614C22.3816 11.1614 21.9656 11.4187 21.7618 11.8257L18.8363 17.6763L12.3706 18.6496C11.9204 18.7172 11.5471 19.0337 11.4062 19.4666C11.2654 19.8999 11.3818 20.3751 11.7058 20.6944ZM19.8115 19.9605C20.1983 19.9023 20.5326 19.6596 20.7078 19.3098L22.837 15.0508L24.9662 19.3098C25.1414 19.6596 25.4757 19.9023 25.8625 19.9605L30.5685 20.669L27.1772 24.0096C26.8987 24.2843 26.771 24.6772 26.8349 25.0632L27.6152 29.7588L23.3906 27.5652C23.2173 27.4751 23.0271 27.43 22.837 27.43C22.6468 27.43 22.4567 27.4751 22.283 27.5652L18.0583 29.7588L18.8386 25.0632C18.903 24.6772 18.7752 24.2843 18.4964 24.0096L15.1055 20.669L19.8115 19.9605Z" fill="#A7623A"/>
<path d="M24.039 1.20195C24.039 1.86584 23.501 2.4039 22.8371 2.4039C22.1732 2.4039 21.6351 1.86584 21.6351 1.20195C21.6351 0.538061 22.1732 0 22.8371 0C23.501 0 24.039 0.538061 24.039 1.20195Z" fill="#A7623A"/>
<path d="M17.1724 0.708834C7.06147 3.28975 0 12.3894 0 22.8374C0 29.3266 2.72834 35.441 7.51783 39.7713L0.276543 52.5332C0.0436646 52.944 0.0727745 53.4529 0.350726 53.8342C0.628677 54.2159 1.10382 54.3995 1.56629 54.3032L9.78981 52.5956L12.6801 60.7402C12.8369 61.1835 13.2384 61.4938 13.7069 61.5356C14.1755 61.5774 14.6248 61.3412 14.8573 60.9323L22.8371 46.9032L30.8165 60.9323C31.0315 61.3102 31.4315 61.5398 31.8607 61.5398C31.8959 61.5398 31.9315 61.5384 31.9668 61.5356C32.4353 61.4938 32.8368 61.183 32.9941 60.7402L35.8839 52.5956L44.1074 54.3032C44.5694 54.399 45.045 54.2154 45.323 53.8342C45.6014 53.4529 45.63 52.944 45.3972 52.5332L38.1559 39.7713C42.9454 35.441 45.6737 29.3266 45.6737 22.8374C45.6737 12.3894 38.6122 3.28975 28.5018 0.708834C27.8581 0.544505 27.204 0.932792 27.0397 1.57602C26.8754 2.21926 27.2637 2.87376 27.9069 3.03809C36.9525 5.34715 43.2703 13.489 43.2703 22.8374C43.2703 34.2151 34.0298 43.2706 22.8371 43.2706C11.6364 43.2706 2.4039 34.2076 2.4039 22.8374C2.4039 13.489 8.7212 5.34715 17.7668 3.03809C18.4101 2.87376 18.7983 2.21926 18.6345 1.57602C18.4702 0.932792 17.8161 0.544505 17.1724 0.708834ZM14.0671 57.4602L11.7049 50.8039C11.504 50.2377 10.9162 49.9067 10.3279 50.0288L3.67816 51.4096L9.40903 41.3095C12.7506 43.7387 16.7071 45.2186 20.8215 45.5848L14.0671 57.4602ZM35.3458 50.0288C34.758 49.9067 34.1697 50.2377 33.9688 50.8039L31.6071 57.4602L24.8522 45.5848C28.967 45.2186 32.9232 43.7387 36.2651 41.3095L41.996 51.4096L35.3458 50.0288Z" fill="#A7623A"/>
</svg>
